<svg width="70" height="70" viewBox="0 0 70 70" fill="none" xmlns="http://www.w3.org/2000/svg">
<path fill-rule="evenodd" clip-rule="evenodd" d="M68.6443 62.7325C66.6305 58.1359 56.9116 55.0715 50.4323 52.226C43.953 49.3805 44.8286 47.6294 44.6097 45.2655C44.5659 44.959 44.5659 44.6088 44.5659 44.2586C46.7986 42.2886 48.5936 39.5744 49.7756 36.4663C49.7756 36.4663 49.8194 36.2912 49.8632 36.2474C50.1258 35.5907 50.3447 34.8465 50.5198 34.1461C52.0083 33.8396 52.8839 32.2199 53.1903 30.7315C53.5406 30.1186 54.1973 28.6302 54.0659 26.9229C53.847 24.734 52.9715 23.7272 52.0083 23.3332V22.9392C52.0083 20.1812 51.7457 16.1537 51.2641 13.5271C50.6445 9.42726 48.4641 5.72556 45.1788 3.19572C42.377 1.1382 38.4807 0 35.0221 0C31.5636 0 27.6673 1.09443 24.9092 3.19572C22.2387 5.25324 20.2686 8.14253 19.3055 11.3383C19.0866 12.0825 18.9115 12.7829 18.8239 13.5271C18.2986 16.1537 18.0797 20.1374 18.0797 22.9392V23.2894C17.029 23.6834 16.1096 24.6902 15.8907 26.9229C15.7594 28.5864 16.4599 30.0748 16.7663 30.6877C17.1166 32.2199 17.9921 33.8397 19.5244 34.1023C19.6995 34.8465 19.9184 35.547 20.1811 36.2474C20.1811 36.2912 20.2249 36.3349 20.2249 36.3787L20.2686 36.4225C21.4507 39.5744 23.3332 42.3324 25.6097 44.3024C25.6097 44.6088 25.5659 44.9152 25.5659 45.2217C25.347 47.5856 26.0037 49.3367 19.5682 52.1822C13.0889 55.0277 3.36999 58.0921 1.35616 62.6887C-0.657666 67.2853 0.174133 69.9995 0.174133 69.9995H69.8701C69.8263 70.0433 70.6581 67.3291 68.6443 62.7325Z" fill="#5F6B7C"/>
</svg>
