<svg width="65" height="46" viewBox="0 0 65 46" fill="none" xmlns="http://www.w3.org/2000/svg">
<path d="M19.4987 24.1357C10.0901 24.1357 2.28734 31.6777 0.760717 41.5742C0.478008 43.4251 1.76716 45.1248 3.45211 45.1248H35.5452C37.2302 45.1248 38.5193 43.4376 38.2366 41.5742C36.71 31.6777 28.8959 24.1357 19.4987 24.1357Z" fill="black"/>
<path d="M19.4993 21.857C24.8892 21.857 29.2585 16.9921 29.2585 10.991C29.2585 4.98986 24.8892 0.125 19.4993 0.125C14.1095 0.125 9.74023 4.98986 9.74023 10.991C9.74023 16.9921 14.1095 21.857 19.4993 21.857Z" fill="black"/>
<path d="M45.7113 21.857C51.1011 21.857 55.4704 16.9921 55.4704 10.991C55.4704 4.98986 51.1011 0.125 45.7113 0.125C40.3215 0.125 35.9521 4.98986 35.9521 10.991C35.9521 16.9921 40.3215 21.857 45.7113 21.857Z" fill="black"/>
<path d="M64.4613 41.5742C62.9347 31.6777 55.1206 24.1357 45.7121 24.1357C41.1322 24.1357 36.9255 25.9237 33.6348 28.9077C36.6993 32.1688 38.8479 36.4749 39.5943 41.3098C39.8996 43.2991 38.52 45.1122 36.7106 45.1122H61.77C63.4549 45.1248 64.7441 43.4251 64.4613 41.5742Z" fill="black"/>
</svg>
