<svg width="60" height="60" viewBox="0 0 60 60" fill="none" xmlns="http://www.w3.org/2000/svg">
<path fill-rule="evenodd" clip-rule="evenodd" d="M58.348 50.4L48.3355 40.35C51.0493 36.1477 52.4945 31.2524 52.498 26.25C52.498 11.7375 40.7605 0 26.248 0C11.7355 0 -0.00195312 11.7375 -0.00195312 26.25C-0.00195312 40.7625 11.7355 52.5 26.248 52.5C31.4605 52.5 36.298 50.925 40.348 48.3375L50.398 58.35C51.4523 59.4042 52.8821 59.9965 54.373 59.9965C55.864 59.9965 57.2938 59.4042 58.348 58.35C59.4023 57.2958 59.9945 55.8659 59.9945 54.375C59.9945 52.8841 59.4023 51.4542 58.348 50.4ZM26.248 45C15.898 45 7.49805 36.6 7.49805 26.25C7.49805 15.9 15.898 7.5 26.248 7.5C36.598 7.5 44.998 15.9 44.998 26.25C44.998 36.6 36.598 45 26.248 45Z" fill="gray"/>
</svg>
