<svg width="101" height="77" viewBox="0 0 101 77" fill="none" xmlns="http://www.w3.org/2000/svg">
<path d="M56.4054 22.8264L56.4109 23.1156L42.076 43.9406C39.7546 43.8344 37.4258 44.2427 35.2143 45.1526C34.2515 45.5438 33.3324 46.0347 32.4718 46.6172L0.991703 33.6425C0.991703 33.6425 0.263057 45.6268 3.29847 54.5573L25.5533 63.7404C26.6518 68.7347 30.0936 73.1139 35.1502 75.2193C39.1284 76.8723 43.5999 76.8787 47.5829 75.2372C51.5658 73.5957 54.7343 70.4405 56.3926 66.4646C57.2773 64.3467 57.7041 62.0657 57.6449 59.7713L78.1367 45.116L78.6401 45.1251C90.9154 45.1251 100.893 35.1181 100.893 22.8264C100.893 10.5346 90.9337 0.564205 78.6401 0.538574C66.3703 0.538574 56.3871 10.5346 56.3871 22.8264H56.4054ZM52.9636 65.0256C50.3016 71.4333 42.9566 74.4486 36.5727 71.7885C33.7398 70.5979 31.4436 68.4072 30.1211 65.6334L37.3654 68.6359C38.4845 69.1017 39.6845 69.3425 40.8967 69.3444C42.1088 69.3463 43.3095 69.1094 44.4301 68.6471C45.5507 68.1848 46.5692 67.5063 47.4275 66.6502C48.2857 65.7942 48.9669 64.7774 49.432 63.658C50.3739 61.3962 50.3795 58.8529 49.4475 56.587C48.5155 54.321 46.7222 52.5177 44.4615 51.5731L36.9553 48.4699C39.8443 47.3715 43.1287 47.3349 46.2007 48.6109C49.313 49.8979 51.693 52.3219 52.9672 55.4214C54.2415 58.5209 54.2341 61.9389 52.9489 65.0256M78.6603 37.683C74.7268 37.6724 70.9579 36.1032 68.1791 33.3193C65.4002 30.5353 63.8381 26.7635 63.8347 22.83C63.839 18.8972 65.4016 15.1263 68.1804 12.3431C70.9591 9.55996 74.7274 7.99131 78.6603 7.98065C82.5937 7.99034 86.363 9.55857 89.1425 12.3418C91.922 15.1251 93.4851 18.8965 93.4895 22.83C93.4861 26.7641 91.9234 30.5365 89.1438 33.3206C86.3642 36.1046 82.5944 37.6734 78.6603 37.683ZM67.5511 22.8062C67.5487 19.8508 68.7198 17.0153 70.807 14.923C72.8942 12.8306 75.7268 11.6525 78.6822 11.6477C84.8245 11.6477 89.8206 16.6457 89.8206 22.8062C89.8221 25.7623 88.6496 28.5979 86.5609 30.6897C84.4722 32.7815 81.6383 33.9582 78.6822 33.9611C75.7271 33.9567 72.8946 32.7794 70.8071 30.6878C68.7196 28.5961 67.5497 25.7613 67.5511 22.8062Z" fill="white"/>
</svg>
